<?xml version="1.0" encoding="UTF-8"?>
<svg version="1.1" xmlns="http://www.w3.org/2000/svg" width="509" height="530">
<path d="M0 0 C167.97 0 335.94 0 509 0 C509 174.9 509 349.8 509 530 C341.03 530 173.06 530 0 530 C0 355.1 0 180.2 0 0 Z " fill="#041C21" transform="translate(0,0)"/>
<path d="M0 0 C167.97 0 335.94 0 509 0 C509 174.9 509 349.8 509 530 C341.03 530 173.06 530 0 530 C0 355.1 0 180.2 0 0 Z M223 50 C221.6658107 50.21117146 220.33114727 50.41936304 218.99609375 50.625 C176.69296942 57.33775653 136.80030588 75.81414073 105.25 104.9375 C103.27210442 106.75057094 101.24803183 108.47039014 99.1875 110.1875 C63.42553117 141.56017286 42.55542815 187.30186456 33 233 C32.8050293 233.9168457 32.61005859 234.83369141 32.40917969 235.77832031 C29.98219358 247.70906847 29.72709872 259.61932424 29.6875 271.75 C29.68364288 272.47995178 29.67978577 273.20990356 29.67581177 273.9619751 C29.63899716 288.09520341 30.90071626 302.0247614 33.8125 315.875 C33.98644287 316.70757324 34.16038574 317.54014648 34.33959961 318.39794922 C34.88010283 320.93498558 35.4383487 323.46757227 36 326 C36.16306641 326.76505859 36.32613281 327.53011719 36.49414062 328.31835938 C43.44025784 360.33691564 59.96169726 391.04317071 81 416 C81.4552002 416.54398437 81.91040039 417.08796875 82.37939453 417.6484375 C120.03949944 462.58058481 173.85745433 491.57033668 232.3828125 497.61328125 C257.84502094 499.67815422 283.15794269 497.6814798 308 492 C309.15483887 491.74742432 309.15483887 491.74742432 310.33300781 491.48974609 C338.23075582 485.31196453 365.14010741 472.01981859 388 455 C388.59329102 454.56220215 389.18658203 454.1244043 389.79785156 453.67333984 C422.73967391 429.18023281 446.35709522 397.3133499 463 360 C463.31694824 359.2992334 463.63389648 358.5984668 463.96044922 357.87646484 C479.53555716 323.05888043 484.9231922 278.44619682 478 241 C477.80535156 239.72640625 477.61070312 238.4528125 477.41015625 237.140625 C471.94351128 202.00210598 458.44086118 168.47984692 437 140 C436.35562988 139.12674072 436.35562988 139.12674072 435.69824219 138.23583984 C399.64003167 89.53964646 345.17583511 58.72088907 285.61572266 49.37548828 C279.08893508 48.4385647 272.58640624 48.10869069 266 48 C264.40865234 47.9693042 264.40865234 47.9693042 262.78515625 47.93798828 C249.36344067 47.71367508 236.23835612 47.57372625 223 50 Z " fill="#051118" transform="translate(0,0)"/>
<path d="M0 0 C12.74625 0.433125 12.74625 0.433125 25.75 0.875 C25.75 33.545 25.75 66.215 25.75 99.875 C-1.25 106.875 -1.25 106.875 -3.25 106.875 C-2.94707031 107.87015625 -2.64414063 108.8653125 -2.33203125 109.890625 C0.33733825 118.75947338 2.74190253 127.66012973 4.94848633 136.6550293 C6.08731502 141.27832721 7.28578529 145.86707362 8.625 150.4375 C10.98300432 158.49481031 13.02067518 166.633029 15.10400391 174.76489258 C17.08689441 182.45485982 19.21968822 190.06767394 21.609375 197.640625 C23.31520642 203.97323206 24.46380446 210.44402231 25.75 216.875 C8.26 216.875 -9.23 216.875 -27.25 216.875 C-27.25 219.515 -27.25 222.155 -27.25 224.875 C-9.76 224.875 7.73 224.875 25.75 224.875 C25.75 271.075 25.75 317.275 25.75 364.875 C3.75459345 363.71734702 3.75459345 363.71734702 -3.625 362.0625 C-4.44661621 361.88944336 -5.26823242 361.71638672 -6.11474609 361.53808594 C-12.16194788 360.22424879 -18.04323672 358.57134763 -23.9140625 356.609375 C-26.15988007 355.77503015 -26.15988007 355.77503015 -28.25 355.875 C-28.25 362.145 -28.25 368.415 -28.25 374.875 C-52.67 374.875 -77.09 374.875 -102.25 374.875 C-102.25 350.455 -102.25 326.035 -102.25 300.875 C-97.25 300.875 -97.25 300.875 -95.66796875 302.40625 C-95.26191406 303.0559375 -94.85585937 303.705625 -94.4375 304.375 C-94.01855469 305.0246875 -93.59960938 305.674375 -93.16796875 306.34375 C-92.71357422 307.10171875 -92.71357422 307.10171875 -92.25 307.875 C-92.62511719 307.30652344 -93.00023437 306.73804688 -93.38671875 306.15234375 C-96.58634786 301.32469176 -99.85537917 296.56756409 -103.25 291.875 C-103.25 294.515 -103.25 297.155 -103.25 299.875 C-110.57416681 300.0201624 -117.89838983 300.16220094 -125.22265625 300.30224609 C-127.7050915 300.35005929 -130.18751397 300.39854172 -132.66992188 300.44775391 C-147.53201018 300.74187439 -162.38485657 300.95226612 -177.25 300.875 C-177.58 302.195 -177.91 303.515 -178.25 304.875 C-183.98012309 290.40639236 -188.99036149 276.10429588 -192.25 260.875 C-192.41516113 260.15151367 -192.58032227 259.42802734 -192.75048828 258.68261719 C-195.80893953 244.61552134 -196.63082854 230.4753378 -196.5625 216.125 C-196.56100952 215.3426297 -196.55951904 214.5602594 -196.5579834 213.75418091 C-196.51527083 201.22840111 -195.67755825 189.18449015 -193.25 176.875 C-192.97885675 175.32840674 -192.70933275 173.78152876 -192.44140625 172.234375 C-182.83867238 119.51315851 -150.18657613 67.8010619 -106.25 36.875 C-105.56083496 36.3898291 -104.87166992 35.9046582 -104.16162109 35.40478516 C-90.23881579 25.70399144 -76.13502382 17.32258358 -60.5 10.6875 C-59.58524902 10.29546387 -58.67049805 9.90342773 -57.72802734 9.49951172 C-54.59461713 8.21023555 -51.43329476 7.03584208 -48.25 5.875 C-47.57803589 5.61231323 -46.90607178 5.34962646 -46.21374512 5.07897949 C-30.75712871 -0.87170158 -16.38196415 -0.66364672 0 0 Z " fill="#04191F" transform="translate(229.25,57.125)"/>
<path d="M0 0 C0.83934082 0.00725098 1.67868164 0.01450195 2.54345703 0.02197266 C22.58636837 0.28693608 43.16472899 5.31560307 62 12 C63.67255859 12.58007812 63.67255859 12.58007812 65.37890625 13.171875 C92.60465958 22.83922016 117.67418998 37.26672018 138.85546875 57.0078125 C140.79217432 58.80693789 142.78148736 60.49709196 144.8125 62.1875 C184.75529646 97.22786068 209.58877395 152.75610654 213.83447266 205.11035156 C215.24758006 229.77928855 213.56022736 253.95201666 208 278 C207.72349609 279.21067139 207.72349609 279.21067139 207.44140625 280.44580078 C204.71359878 292.16361512 200.94883107 303.04592226 196 314 C195.42403076 315.30710937 195.42403076 315.30710937 194.83642578 316.640625 C188.27485067 331.45524946 180.4957593 344.87491265 171 358 C170.52062988 358.66322266 170.04125977 359.32644531 169.54736328 360.00976562 C144.57334683 394.07587089 108.46778027 421.84561366 68.4453125 435.78125 C64.99599186 436.94604951 64.99599186 436.94604951 61.76171875 438.46875 C56.9153409 440.58127368 51.80877324 441.74435983 46.6875 443 C45.09723999 443.39191528 45.09723999 443.39191528 43.47485352 443.79174805 C15.64100778 450.51272112 -14.69222245 453.23364724 -43 448 C-44.91039062 447.70802734 -44.91039062 447.70802734 -46.859375 447.41015625 C-81.99457118 441.94692089 -115.4814142 428.3403855 -144 407 C-144.58507324 406.56896973 -145.17014648 406.13793945 -145.77294922 405.69384766 C-180.84897611 379.71630589 -207.3634284 343.88291209 -222.26904297 302.91455078 C-222.94406881 301.14649714 -223.7200044 299.41786046 -224.50390625 297.6953125 C-226.49542053 292.77632422 -227.74215218 287.77358963 -229 282.625 C-229.26127686 281.56442383 -229.52255371 280.50384766 -229.79174805 279.41113281 C-237.66079739 246.91355491 -238.93975717 212.7974825 -232 180 C-231.78569336 178.97874023 -231.57138672 177.95748047 -231.35058594 176.90527344 C-224.20015718 143.85925988 -209.86009154 113.58040914 -189 87 C-188.36707031 86.17371094 -187.73414063 85.34742188 -187.08203125 84.49609375 C-152.79696866 40.45569376 -103.28894695 13.29484559 -49 2.75 C-48.16436523 2.58677246 -47.32873047 2.42354492 -46.46777344 2.25537109 C-31.06642191 -0.60609885 -15.60312727 -0.19827565 0 0 Z M-88 16 C-89.80029663 16.66237671 -89.80029663 16.66237671 -91.63696289 17.33813477 C-94.38521176 18.39793176 -97.06717048 19.53535974 -99.75 20.75 C-100.6898877 21.16846191 -101.62977539 21.58692383 -102.59814453 22.01806641 C-156.09987691 46.38134896 -198.45997406 91.95876093 -219.4375 146.8125 C-225.59861977 163.53576131 -229.39315609 180.37841227 -232 198 C-232.15903809 199.02794678 -232.15903809 199.02794678 -232.32128906 200.07666016 C-233.39560705 208.07628602 -233.24299025 216.19301094 -233.25 224.25 C-233.25100708 225.05235077 -233.25201416 225.85470154 -233.25305176 226.68136597 C-233.24229489 239.36703383 -232.46845211 251.53272086 -230 264 C-229.71756708 265.5818205 -229.43632679 267.16385438 -229.15625 268.74609375 C-223.2989575 300.33918915 -209.20156372 331.30254662 -190 357 C-189.53319824 357.6290625 -189.06639648 358.258125 -188.58544922 358.90625 C-166.48803176 388.29920324 -137.45872326 411.78147442 -104 427 C-103.26845703 427.33483398 -102.53691406 427.66966797 -101.78320312 428.01464844 C-82.46229593 436.75584052 -62.98183354 442.03436982 -42 445 C-40.74799805 445.17789063 -40.74799805 445.17789063 -39.47070312 445.359375 C-19.59463557 448.05009164 1.21623316 448.49299847 21 445 C21.94665527 444.84402344 22.89331055 444.68804687 23.86865234 444.52734375 C38.84485172 442.03937339 52.89743233 438.62468979 67 433 C67.78922852 432.69191406 68.57845703 432.38382812 69.39160156 432.06640625 C92.40267517 423.03069344 113.26831301 411.20672605 132 395 C132.78117187 394.3296875 133.56234375 393.659375 134.3671875 392.96875 C146.78186872 382.06011207 158.34611977 370.43602811 168 357 C168.47501953 356.34225586 168.95003906 355.68451172 169.43945312 355.00683594 C186.55757988 331.0211603 200.3670266 303.0695767 206 274 C206.25837646 272.69240723 206.25837646 272.69240723 206.52197266 271.35839844 C209.54882393 255.8678867 211 241.98118416 211 226 C187.24 226 163.48 226 139 226 C138.34 232.93 137.68 239.86 137 247 C134.7368957 259.60872396 131.57477802 271.0903279 127 283 C127.18103271 282.47140381 127.36206543 281.94280762 127.54858398 281.39819336 C133.75501039 263.05803387 138 245.43675217 138 226 C88.83 226 39.66 226 -11 226 C-11.99 221.05 -12.98 216.1 -14 211 C-14.74141728 208.25675608 -15.52366044 205.5236451 -16.375 202.8125 C-18.53808626 195.75587433 -20.39726957 188.65311624 -22.12451172 181.4777832 C-23.2448379 176.86669049 -24.47465649 172.3036717 -25.796875 167.74609375 C-28.89806452 156.99845429 -31.64079129 146.15434814 -34.44458008 135.32617188 C-35.17343277 132.51383597 -35.90494716 129.70220256 -36.63671875 126.890625 C-36.85962082 126.0261676 -37.08252289 125.16171021 -37.31217957 124.27105713 C-37.51942154 123.47552429 -37.72666351 122.67999146 -37.94018555 121.86035156 C-38.21187813 120.81116547 -38.21187813 120.81116547 -38.48905945 119.74078369 C-38.96973392 117.9128547 -38.96973392 117.9128547 -40 116 C-39.41476563 115.91363281 -38.82953125 115.82726562 -38.2265625 115.73828125 C-28.79902728 114.1953363 -20.4109393 111.61414981 -11 109 C-11 76.33 -11 43.66 -11 10 C-19.435625 9.690625 -27.87125 9.38125 -36.5625 9.0625 C-39.1722876 8.94656494 -41.7820752 8.83062988 -44.47094727 8.71118164 C-60.25077518 8.18275488 -73.28740844 10.32262062 -88 16 Z " fill="#041D21" transform="translate(266,48)"/>
<path d="M0 0 C0.83934082 0.00725098 1.67868164 0.01450195 2.54345703 0.02197266 C22.58636837 0.28693608 43.16472899 5.31560307 62 12 C63.67255859 12.58007812 63.67255859 12.58007812 65.37890625 13.171875 C92.60465958 22.83922016 117.67418998 37.26672018 138.85546875 57.0078125 C140.79217432 58.80693789 142.78148736 60.49709196 144.8125 62.1875 C184.75529646 97.22786068 209.58877395 152.75610654 213.83447266 205.11035156 C215.24758006 229.77928855 213.56022736 253.95201666 208 278 C207.72349609 279.21067139 207.72349609 279.21067139 207.44140625 280.44580078 C204.71359878 292.16361512 200.94883107 303.04592226 196 314 C195.42403076 315.30710937 195.42403076 315.30710937 194.83642578 316.640625 C188.27485067 331.45524946 180.4957593 344.87491265 171 358 C170.52062988 358.66322266 170.04125977 359.32644531 169.54736328 360.00976562 C144.57334683 394.07587089 108.46778027 421.84561366 68.4453125 435.78125 C64.99599186 436.94604951 64.99599186 436.94604951 61.76171875 438.46875 C56.9153409 440.58127368 51.80877324 441.74435983 46.6875 443 C45.09723999 443.39191528 45.09723999 443.39191528 43.47485352 443.79174805 C15.64100778 450.51272112 -14.69222245 453.23364724 -43 448 C-44.91039062 447.70802734 -44.91039062 447.70802734 -46.859375 447.41015625 C-81.99457118 441.94692089 -115.4814142 428.3403855 -144 407 C-144.58507324 406.56896973 -145.17014648 406.13793945 -145.77294922 405.69384766 C-180.84897611 379.71630589 -207.3634284 343.88291209 -222.26904297 302.91455078 C-222.94406881 301.14649714 -223.7200044 299.41786046 -224.50390625 297.6953125 C-226.49542053 292.77632422 -227.74215218 287.77358963 -229 282.625 C-229.26127686 281.56442383 -229.52255371 280.50384766 -229.79174805 279.41113281 C-237.66079739 246.91355491 -238.93975717 212.7974825 -232 180 C-231.78569336 178.97874023 -231.57138672 177.95748047 -231.35058594 176.90527344 C-224.20015718 143.85925988 -209.86009154 113.58040914 -189 87 C-188.36707031 86.17371094 -187.73414063 85.34742188 -187.08203125 84.49609375 C-152.79696866 40.45569376 -103.28894695 13.29484559 -49 2.75 C-48.16436523 2.58677246 -47.32873047 2.42354492 -46.46777344 2.25537109 C-31.06642191 -0.60609885 -15.60312727 -0.19827565 0 0 Z M-50 6 C-51.5533447 6.26976582 -53.10672993 6.53929837 -54.66015625 6.80859375 C-108.68504001 16.70039399 -160.06909446 50.03393761 -191.609375 94.98095703 C-213.26596272 126.42407157 -226.42872023 160.33959584 -232 198 C-232.15903809 199.02794678 -232.15903809 199.02794678 -232.32128906 200.07666016 C-233.39560705 208.07628602 -233.24299025 216.19301094 -233.25 224.25 C-233.25100708 225.05235077 -233.25201416 225.85470154 -233.25305176 226.68136597 C-233.24229489 239.36703383 -232.46845211 251.53272086 -230 264 C-229.71756708 265.5818205 -229.43632679 267.16385438 -229.15625 268.74609375 C-223.2989575 300.33918915 -209.20156372 331.30254662 -190 357 C-189.53319824 357.6290625 -189.06639648 358.258125 -188.58544922 358.90625 C-166.48803176 388.29920324 -137.45872326 411.78147442 -104 427 C-103.26845703 427.33483398 -102.53691406 427.66966797 -101.78320312 428.01464844 C-82.46229593 436.75584052 -62.98183354 442.03436982 -42 445 C-40.74799805 445.17789063 -40.74799805 445.17789063 -39.47070312 445.359375 C-19.59463557 448.05009164 1.21623316 448.49299847 21 445 C21.94665527 444.84402344 22.89331055 444.68804687 23.86865234 444.52734375 C38.84485172 442.03937339 52.89743233 438.62468979 67 433 C67.78922852 432.69191406 68.57845703 432.38382812 69.39160156 432.06640625 C92.40267517 423.03069344 113.26831301 411.20672605 132 395 C132.78117187 394.3296875 133.56234375 393.659375 134.3671875 392.96875 C146.78186872 382.06011207 158.34611977 370.43602811 168 357 C168.47501953 356.34225586 168.95003906 355.68451172 169.43945312 355.00683594 C186.55757988 331.0211603 200.3670266 303.0695767 206 274 C206.25837646 272.69240723 206.25837646 272.69240723 206.52197266 271.35839844 C209.54882393 255.8678867 211 241.98118416 211 226 C187.24 226 163.48 226 139 226 C138.34 232.93 137.68 239.86 137 247 C134.7368957 259.60872396 131.57477802 271.0903279 127 283 C127.18103271 282.47140381 127.36206543 281.94280762 127.54858398 281.39819336 C133.75501039 263.05803387 138 245.43675217 138 226 C88.83 226 39.66 226 -11 226 C-11.99 221.05 -12.98 216.1 -14 211 C-14.74141728 208.25675608 -15.52366044 205.5236451 -16.375 202.8125 C-18.53808626 195.75587433 -20.39726957 188.65311624 -22.12451172 181.4777832 C-23.2448379 176.86669049 -24.47465649 172.3036717 -25.796875 167.74609375 C-28.89806452 156.99845429 -31.64079129 146.15434814 -34.44458008 135.32617188 C-35.17343277 132.51383597 -35.90494716 129.70220256 -36.63671875 126.890625 C-36.85962082 126.0261676 -37.08252289 125.16171021 -37.31217957 124.27105713 C-37.51942154 123.47552429 -37.72666351 122.67999146 -37.94018555 121.86035156 C-38.21187813 120.81116547 -38.21187813 120.81116547 -38.48905945 119.74078369 C-38.96973392 117.9128547 -38.96973392 117.9128547 -40 116 C-39.41476563 115.91363281 -38.82953125 115.82726562 -38.2265625 115.73828125 C-27.45856585 113.97595147 -17.07425752 110.76490378 -6.61328125 107.7265625 C-5.0548192 107.27558629 -3.49621985 106.82508434 -1.9375 106.375 C-1.12506836 106.13974609 -0.31263672 105.90449219 0.52441406 105.66210938 C7.1114967 103.77603405 13.72507609 101.99843776 20.34765625 100.2421875 C21.2684346 99.99749725 22.18921295 99.75280701 23.13789368 99.5007019 C27.8310143 98.25407386 32.52567747 97.01379533 37.22290039 95.78271484 C38.97417937 95.31890489 40.72540249 94.85488395 42.4765625 94.390625 C43.29129532 94.17936981 44.10602814 93.96811462 44.94544983 93.75045776 C48.39141617 92.83167156 51.00760493 91.99493005 54 90 C56.3046875 89.65625 56.3046875 89.65625 58.875 89.5 C62.60313179 89.20022332 65.61079063 88.69460468 69 87 C68.66548828 87.90878906 68.66548828 87.90878906 68.32421875 88.8359375 C67.54744898 91.93348567 67.3204968 93.85462668 68 97 C71.43092617 100.55724893 75.22567735 103.20558741 79.35253906 105.89355469 C81.68157979 107.45775335 83.83884031 109.21398501 86 111 C85.67 111.33 85.34 111.66 85 112 C84.90695982 113.47354348 84.88253735 114.95150591 84.88647461 116.42797852 C84.88658791 117.83932823 84.88658791 117.83932823 84.88670349 119.27919006 C84.89186478 120.30209641 84.89702606 121.32500275 84.90234375 122.37890625 C84.9037587 123.42070541 84.90517365 124.46250458 84.90663147 125.53587341 C84.9122492 128.87811094 84.9248047 132.22028257 84.9375 135.5625 C84.94251272 137.82226466 84.94707602 140.08203037 84.95117188 142.34179688 C84.96222439 147.89455682 84.9795009 153.44726722 85 159 C78.73 159 72.46 159 66 159 C66 159.33 66 159.66 66 160 C72.27 160 78.54 160 85 160 C85 172.87 85 185.74 85 199 C76.585 200.98 76.585 200.98 68 203 C63.76247689 204.1028135 59.53510357 205.21919503 55.3125 206.375 C54.20874023 206.67462646 53.10498047 206.97425293 51.96777344 207.28295898 C48.64441213 208.18583887 45.32212756 209.09259264 42 210 C40.0716655 210.52492667 38.14328255 211.04967539 36.21484375 211.57421875 C32.61652549 212.55358241 29.01893202 213.53554592 25.421875 214.51953125 C21.60052808 215.56445267 17.7773718 216.60246159 13.953125 217.63671875 C12.95700195 217.90669678 11.96087891 218.1766748 10.93457031 218.45483398 C9.03324507 218.97002669 7.13157322 219.4839426 5.22949219 219.99633789 C0.77010607 221.20649189 -3.63412911 222.47768976 -8 224 C-8 224.33 -8 224.66 -8 225 C40.18 225 88.36 225 138 225 C137.45445108 210.27670526 137.45445108 210.27670526 135.3125 195.9375 C135.06064941 194.72658691 135.06064941 194.72658691 134.80371094 193.49121094 C132.89469617 184.77348987 130.03637252 176.38038816 127 168 C131.39048987 178.34567561 134.77393332 188.73030744 136.6875 199.8125 C136.80681885 200.48603516 136.9261377 201.15957031 137.04907227 201.85351562 C138.29001179 209.58448808 138.50527266 217.08436255 139 225 C162.76 225 186.52 225 211 225 C211 172.45365468 193.49372431 121.87749979 159 82 C158.34128906 81.23042969 157.68257813 80.46085937 157.00390625 79.66796875 C130.60108097 49.57174258 99.31829999 29.04553738 62 15 C61.34708984 14.75121094 60.69417969 14.50242187 60.02148438 14.24609375 C25.78212732 1.37415501 -14.2291822 -0.81313607 -50 6 Z " fill="#034943" transform="translate(266,48)"/>
<path d="M0 0 C0.83934082 0.00725098 1.67868164 0.01450195 2.54345703 0.02197266 C22.58636837 0.28693608 43.16472899 5.31560307 62 12 C63.67255859 12.58007812 63.67255859 12.58007812 65.37890625 13.171875 C92.60465958 22.83922016 117.67418998 37.26672018 138.85546875 57.0078125 C140.79217432 58.80693789 142.78148736 60.49709196 144.8125 62.1875 C184.75529646 97.22786068 209.58877395 152.75610654 213.83447266 205.11035156 C215.24758006 229.77928855 213.56022736 253.95201666 208 278 C207.72349609 279.21067139 207.72349609 279.21067139 207.44140625 280.44580078 C204.71359878 292.16361512 200.94883107 303.04592226 196 314 C195.42403076 315.30710937 195.42403076 315.30710937 194.83642578 316.640625 C188.27485067 331.45524946 180.4957593 344.87491265 171 358 C170.52062988 358.66322266 170.04125977 359.32644531 169.54736328 360.00976562 C144.57334683 394.07587089 108.46778027 421.84561366 68.4453125 435.78125 C64.99599186 436.94604951 64.99599186 436.94604951 61.76171875 438.46875 C56.9153409 440.58127368 51.80877324 441.74435983 46.6875 443 C45.09723999 443.39191528 45.09723999 443.39191528 43.47485352 443.79174805 C15.64100778 450.51272112 -14.69222245 453.23364724 -43 448 C-44.91039062 447.70802734 -44.91039062 447.70802734 -46.859375 447.41015625 C-81.99457118 441.94692089 -115.4814142 428.3403855 -144 407 C-144.58507324 406.56896973 -145.17014648 406.13793945 -145.77294922 405.69384766 C-180.84897611 379.71630589 -207.3634284 343.88291209 -222.26904297 302.91455078 C-222.94406881 301.14649714 -223.7200044 299.41786046 -224.50390625 297.6953125 C-226.49542053 292.77632422 -227.74215218 287.77358963 -229 282.625 C-229.26127686 281.56442383 -229.52255371 280.50384766 -229.79174805 279.41113281 C-237.66079739 246.91355491 -238.93975717 212.7974825 -232 180 C-231.78569336 178.97874023 -231.57138672 177.95748047 -231.35058594 176.90527344 C-224.20015718 143.85925988 -209.86009154 113.58040914 -189 87 C-188.36707031 86.17371094 -187.73414063 85.34742188 -187.08203125 84.49609375 C-152.79696866 40.45569376 -103.28894695 13.29484559 -49 2.75 C-48.16436523 2.58677246 -47.32873047 2.42354492 -46.46777344 2.25537109 C-31.06642191 -0.60609885 -15.60312727 -0.19827565 0 0 Z M-50 6 C-51.5533447 6.26976582 -53.10672993 6.53929837 -54.66015625 6.80859375 C-108.68504001 16.70039399 -160.06909446 50.03393761 -191.609375 94.98095703 C-213.26596272 126.42407157 -226.42872023 160.33959584 -232 198 C-232.15903809 199.02794678 -232.15903809 199.02794678 -232.32128906 200.07666016 C-233.39560705 208.07628602 -233.24299025 216.19301094 -233.25 224.25 C-233.25100708 225.05235077 -233.25201416 225.85470154 -233.25305176 226.68136597 C-233.24229489 239.36703383 -232.46845211 251.53272086 -230 264 C-229.71756708 265.5818205 -229.43632679 267.16385438 -229.15625 268.74609375 C-223.2989575 300.33918915 -209.20156372 331.30254662 -190 357 C-189.53319824 357.6290625 -189.06639648 358.258125 -188.58544922 358.90625 C-166.48803176 388.29920324 -137.45872326 411.78147442 -104 427 C-103.26845703 427.33483398 -102.53691406 427.66966797 -101.78320312 428.01464844 C-82.46229593 436.75584052 -62.98183354 442.03436982 -42 445 C-40.74799805 445.17789063 -40.74799805 445.17789063 -39.47070312 445.359375 C-19.59463557 448.05009164 1.21623316 448.49299847 21 445 C21.94665527 444.84402344 22.89331055 444.68804687 23.86865234 444.52734375 C38.84485172 442.03937339 52.89743233 438.62468979 67 433 C67.78922852 432.69191406 68.57845703 432.38382812 69.39160156 432.06640625 C92.40267517 423.03069344 113.26831301 411.20672605 132 395 C132.78117187 394.3296875 133.56234375 393.659375 134.3671875 392.96875 C146.78186872 382.06011207 158.34611977 370.43602811 168 357 C168.47501953 356.34225586 168.95003906 355.68451172 169.43945312 355.00683594 C186.55757988 331.0211603 200.3670266 303.0695767 206 274 C206.25837646 272.69240723 206.25837646 272.69240723 206.52197266 271.35839844 C211.5608371 245.57101023 212.54545836 220.11056953 209 194 C208.8146167 192.63246582 208.8146167 192.63246582 208.62548828 191.23730469 C202.87514961 150.71309982 185.78604464 112.96680659 159 82 C158.34128906 81.23042969 157.68257813 80.46085937 157.00390625 79.66796875 C130.60108097 49.57174258 99.31829999 29.04553738 62 15 C61.34708984 14.75121094 60.69417969 14.50242187 60.02148438 14.24609375 C25.78212732 1.37415501 -14.2291822 -0.81313607 -50 6 Z " fill="#00E9BB" transform="translate(266,48)"/>
<path d="M0 0 C16.83 0 33.66 0 51 0 C51 18.81 51 37.62 51 57 C34.17 57 17.34 57 0 57 C0 38.19 0 19.38 0 0 Z " fill="#050B14" transform="translate(0,0)"/>
<path d="M0 0 C11.88 0 23.76 0 36 0 C36.886875 3.444375 37.77375 6.88875 38.6875 10.4375 C40.50506967 17.45757293 42.38915175 24.43739126 44.5 31.375 C47.71851014 42.47885998 50.30199757 53.75832322 53 65 C35.51 65 18.02 65 0 65 C0 43.55 0 22.1 0 0 Z " fill="#05171D" transform="translate(202,208)"/>
<path d="M0 0 C0.33 0 0.66 0 1 0 C1 7.59 1 15.18 1 23 C4.63 23 8.26 23 12 23 C12 23.33 12 23.66 12 24 C8.37 24 4.74 24 1 24 C1 45.45 1 66.9 1 89 C18.49 89 35.98 89 54 89 C54 84.38 54 79.76 54 75 C54.25636854 72.53245282 54.56577218 70.06753149 55 67.625 C55.2784375 66.00464844 55.2784375 66.00464844 55.5625 64.3515625 C55.706875 63.57554687 55.85125 62.79953125 56 62 C56.33 62 56.66 62 57 62 C56.8562497 64.43763799 56.71002168 66.8750895 56.5625 69.3125 C56.52318359 69.98345703 56.48386719 70.65441406 56.44335938 71.34570312 C56.08301107 77.24987156 55.53632549 83.10041959 55 89 C104.17 89 153.34 89 204 89 C204 89.33 204 89.66 204 90 C154.83 90 105.66 90 55 90 C55.495 93.96 55.495 93.96 56 98 C56.06209509 100.16587688 56.08712076 102.33337306 56.0625 104.5 C56.05347656 105.5415625 56.04445313 106.583125 56.03515625 107.65625 C56.02355469 108.4296875 56.01195313 109.203125 56 110 C55.67 110 55.34 110 55 110 C54 104 54 104 54 90 C36.51 90 19.02 90 1 90 C1 92.64 1 95.28 1 98 C2.32 98.33 3.64 98.66 5 99 C3.68 99 2.36 99 1 99 C1 123.42 1 147.84 1 173 C7.6 173 14.2 173 21 173 C21 173.33 21 173.66 21 174 C14.4 174 7.8 174 1 174 C0.67 175.32 0.34 176.64 0 178 C-5.73012309 163.53139236 -10.74036149 149.22929588 -14 134 C-14.2477417 132.91477051 -14.2477417 132.91477051 -14.50048828 131.80761719 C-17.55893953 117.74052134 -18.38082854 103.6003378 -18.3125 89.25 C-18.31100952 88.4676297 -18.30951904 87.6852594 -18.3079834 86.87918091 C-18.26527083 74.35340111 -17.42755825 62.30949015 -15 50 C-14.72885675 48.45340674 -14.45933275 46.90652876 -14.19140625 45.359375 C-11.3531323 29.82757396 -6.45938609 14.40785184 0 0 Z " fill="#042C2C" transform="translate(51,184)"/>
<path d="M0 0 C0.33 0 0.66 0 1 0 C1 18.81 1 37.62 1 57 C25.42 57 49.84 57 75 57 C75 38.19 75 19.38 75 0 C75.33 0 75.66 0 76 0 C76 18.81 76 37.62 76 57 C96.79 57 117.58 57 139 57 C136.30201519 58.79865654 134.01561857 59.71681998 130.96289062 60.69799805 C112.84865901 66.5715673 95.70000524 75.23205485 80.03515625 86.015625 C77 88 77 88 75 88 C75 78.1 75 68.2 75 58 C50.58 58 26.16 58 1 58 C1 82.42 1 106.84 1 132 C9.91 132 18.82 132 28 132 C26.1361122 135.7277756 23.96363037 138.86369641 21.5 142.1875 C13.57643043 153.08222619 6.69977936 164.79047264 1 177 C0.67 177 0.34 177 0 177 C0 162.48 0 147.96 0 133 C-16.83 133 -33.66 133 -51 133 C-51 132.67 -51 132.34 -51 132 C-34.17 132 -17.34 132 0 132 C0 107.58 0 83.16 0 58 C-16.83 58 -33.66 58 -51 58 C-51 57.67 -51 57.34 -51 57 C-34.17 57 -17.34 57 0 57 C0 38.19 0 19.38 0 0 Z " fill="#061D24" transform="translate(51,0)"/>
<path d="M0 0 C-0.33 0.33 -0.66 0.66 -1 1 C-1.10787538 2.50508199 -1.14682432 4.01516316 -1.15821838 5.52406311 C-1.17290161 6.99018791 -1.17290161 6.99018791 -1.18788147 8.4859314 C-1.19363693 9.56702179 -1.1993924 10.64811218 -1.20532227 11.76196289 C-1.22017166 13.45930321 -1.22017166 13.45930321 -1.23532104 15.19093323 C-1.26704594 18.95148589 -1.29173675 22.71205121 -1.31640625 26.47265625 C-1.3369663 29.07197915 -1.3579625 31.67129864 -1.37937927 34.27061462 C-1.42903619 40.42585414 -1.47427596 46.58111178 -1.51740164 52.73640007 C-1.56673197 59.74236709 -1.62166564 66.74828661 -1.67708123 73.75420773 C-1.79097692 88.16942723 -1.89779936 102.58469308 -2 117 C-4.5061826 114.4938174 -4.72797719 112.74846636 -5.55078125 109.3125 C-5.83453613 108.1476709 -6.11829102 106.9828418 -6.41064453 105.78271484 C-6.70825684 104.53441895 -7.00586914 103.28612305 -7.3125 102 C-7.93964536 99.42925728 -8.56855116 96.85894339 -9.19921875 94.2890625 C-9.50649902 93.03512695 -9.8137793 91.78119141 -10.13037109 90.48925781 C-11.55648098 84.76720208 -13.13684223 79.09429927 -14.74658203 73.421875 C-18.67095347 59.5888789 -22.43555798 45.71782902 -26.0769043 31.80761719 C-26.826508 28.94653436 -27.58019608 26.08654535 -28.33398438 23.2265625 C-28.81274533 21.40110599 -29.29127035 19.57558758 -29.76953125 17.75 C-30.1069207 16.47213623 -30.1069207 16.47213623 -30.4511261 15.16845703 C-32 9.22899891 -32 9.22899891 -32 7 C-16.03408627 2.21400927 -16.03408627 2.21400927 -8.125 0.125 C-7.19945312 -0.11992187 -6.27390625 -0.36484375 -5.3203125 -0.6171875 C-3 -1 -3 -1 0 0 Z " fill="#036A5C" transform="translate(258,157)"/>
<path d="M0 0 C24.42 0 48.84 0 74 0 C74 7.26 74 14.52 74 22 C49.58 22 25.16 22 0 22 C0 14.74 0 7.48 0 0 Z " fill="#040B14" transform="translate(52,508)"/>
<path d="M0 0 C1.32 0.33 2.64 0.66 4 1 C3.34 1.33 2.68 1.66 2 2 C1.67 26.09 1.34 50.18 1 75 C7.6 73.02 14.2 71.04 21 69 C32.25 66.75 32.25 66.75 36.625 66.875 C37.46289062 66.89304687 38.30078125 66.91109375 39.1640625 66.9296875 C39.76992187 66.95289062 40.37578125 66.97609375 41 67 C41 67.33 41 67.66 41 68 C40.42258057 68.09498779 39.84516113 68.18997559 39.25024414 68.2878418 C16.77917192 72.03784246 -5.0288016 77.21890385 -24.25 90.06640625 C-24.8275 90.37449219 -25.405 90.68257813 -26 91 C-26.66 90.67 -27.32 90.34 -28 90 C-26.06801722 88.76217955 -24.12903518 87.53528293 -22.1875 86.3125 C-21.10855469 85.62800781 -20.02960938 84.94351563 -18.91796875 84.23828125 C-14.11881641 81.49659203 -9.03167738 79.28712608 -4 77 C-27.1 76.67 -50.2 76.34 -74 76 C-73.67 95.47 -73.34 114.94 -73 135 C-72.34 134.67 -71.68 134.34 -71 134 C-71.42257276 135.4835001 -71.86356322 136.96176424 -72.3125 138.4375 C-72.55613281 139.26121094 -72.79976562 140.08492187 -73.05078125 140.93359375 C-73.36402344 141.61550781 -73.67726562 142.29742187 -74 143 C-74.99 143.33 -75.98 143.66 -77 144 C-76.83923477 143.47053772 -76.67846954 142.94107544 -76.51283264 142.39556885 C-75.88191698 139.44840482 -75.83622373 136.68595088 -75.79467773 133.67089844 C-75.77473251 132.38987244 -75.75478729 131.10884644 -75.73423767 129.78900146 C-75.71725591 128.39579386 -75.70037701 127.00258501 -75.68359375 125.609375 C-75.66301206 124.18019017 -75.64201527 122.75101127 -75.62062073 121.32183838 C-75.56552551 117.5670655 -75.51606112 113.81223882 -75.46777344 110.05737305 C-75.41746655 106.22309605 -75.36182852 102.3888968 -75.30664062 98.5546875 C-75.19921264 91.03652425 -75.09773384 83.51829618 -75 76 C-80.92679536 76.09347898 -86.85317951 76.19956058 -92.77954102 76.31738281 C-94.79607952 76.35569104 -96.81268678 76.39054065 -98.8293457 76.421875 C-101.72632442 76.46748549 -104.62282896 76.52548639 -107.51953125 76.5859375 C-108.87435356 76.60326431 -108.87435356 76.60326431 -110.25654602 76.62094116 C-111.09719101 76.64081085 -111.937836 76.66068054 -112.80395508 76.68115234 C-113.54341873 76.69447601 -114.28288239 76.70779968 -115.04475403 76.7215271 C-117.32104165 76.90214412 -117.32104165 76.90214412 -120 79 C-117.31652987 72.66938261 -111.69096422 67.90971385 -107 63 C-106.41959961 62.39091797 -105.83919922 61.78183594 -105.24121094 61.15429688 C-96.72257096 52.27286846 -87.88002927 44.33417393 -78 37 C-77.20980469 36.40703125 -76.41960937 35.8140625 -75.60546875 35.203125 C-74.81076172 34.60757813 -74.81076172 34.60757813 -74 34 C-73.01 34.495 -73.01 34.495 -72 35 C-72.33 35.33 -72.66 35.66 -73 36 C-73.16022369 38.88231182 -73.2596158 41.7439792 -73.31640625 44.62890625 C-73.33505737 45.39456909 -73.3537085 46.16023193 -73.3729248 46.94909668 C-73.44142745 49.82010932 -73.50144504 52.69131933 -73.5625 55.5625 C-73.706875 61.976875 -73.85125 68.39125 -74 75 C-49.58 75 -25.16 75 0 75 C0 50.25 0 25.5 0 0 Z " fill="#05292C" transform="translate(201,57)"/>
<path d="M0 0 C16.83 0 33.66 0 51 0 C51 7.26 51 14.52 51 22 C34.17 22 17.34 22 0 22 C0 14.74 0 7.48 0 0 Z " fill="#040A14" transform="translate(0,508)"/>
<path d="M0 0 C0 0.33 0 0.66 0 1 C-15.345 1.495 -15.345 1.495 -31 2 C-31.33 4.31 -31.66 6.62 -32 9 C-32.33 9 -32.66 9 -33 9 C-33 6.36 -33 3.72 -33 1 C-39.27 1.33 -45.54 1.66 -52 2 C-52.33 23.12 -52.66 44.24 -53 66 C-48.71 66 -44.42 66 -40 66 C-36.57201569 66.37753131 -33.26097231 66.79582053 -29.875 67.375 C-29.05257812 67.50132813 -28.23015625 67.62765625 -27.3828125 67.7578125 C-23.52920583 68.38748679 -21.32337991 68.78441339 -18 71 C-25.44671687 70.41169389 -32.82795205 69.52713898 -40.2265625 68.5 C-44.47648535 67.93686322 -48.73915108 67.47342766 -53 67 C-53 77.56 -53 88.12 -53 99 C-53.33 99 -53.66 99 -54 99 C-54 88.44 -54 77.88 -54 67 C-57.96 67 -61.92 67 -66 67 C-66 66.67 -66 66.34 -66 66 C-62.04 66 -58.08 66 -54 66 C-54 44.55 -54 23.1 -54 1 C-69.70685558 1.07917987 -69.70685558 1.07917987 -85.41357422 1.18017578 C-87.37727645 1.18601497 -89.34098108 1.19111188 -91.3046875 1.1953125 C-92.33086182 1.20554443 -93.35703613 1.21577637 -94.41430664 1.22631836 C-95.38859619 1.22656006 -96.36288574 1.22680176 -97.36669922 1.22705078 C-98.21497284 1.231492 -99.06324646 1.23593323 -99.93722534 1.24050903 C-102 1 -102 1 -104 -1 C-100.35498776 -1.6505237 -96.708855 -2.29454906 -93.0625 -2.9375 C-92.04091797 -3.11990234 -91.01933594 -3.30230469 -89.96679688 -3.49023438 C-60.30287209 -8.70274512 -29.22841285 -6.95271714 0 0 Z " fill="#053232" transform="translate(309,57)"/>
<path d="M0 0 C24.42 0 48.84 0 74 0 C74 2.64 74 5.28 74 8 C49.58 8 25.16 8 0 8 C0 5.36 0 2.72 0 0 Z " fill="#04171D" transform="translate(127,274)"/>
<path d="M0 0 C5.28 0 10.56 0 16 0 C16 21.12 16 42.24 16 64 C14.38960488 60.77920976 13.49040133 58.41439442 12.66796875 54.9921875 C12.42933105 54.01435303 12.19069336 53.03651855 11.94482422 52.02905273 C11.69490723 50.98821533 11.44499023 49.94737793 11.1875 48.875 C9.34950296 41.3658073 7.47135298 33.87901725 5.375 26.4375 C5.17463135 25.72247314 4.9742627 25.00744629 4.76782227 24.27075195 C3.97727041 21.45540281 3.18287275 18.6412084 2.38085938 15.82910156 C1.78786031 13.7423096 1.20551025 11.65279478 0.625 9.5625 C0.28726563 8.36753906 -0.05046875 7.17257813 -0.3984375 5.94140625 C-1 3 -1 3 0 0 Z " fill="#03564D" transform="translate(239,208)"/>
<path d="M0 0 C0.33 0 0.66 0 1 0 C0.8562497 2.43763799 0.71002168 4.8750895 0.5625 7.3125 C0.52318359 7.98345703 0.48386719 8.65441406 0.44335938 9.34570312 C0.08301107 15.24987156 -0.46367451 21.10041959 -1 27 C48.17 27 97.34 27 148 27 C148 27.33 148 27.66 148 28 C98.83 28 49.66 28 -1 28 C-0.505 31.96 -0.505 31.96 0 36 C0.06209509 38.16587688 0.08712076 40.33337306 0.0625 42.5 C0.05347656 43.5415625 0.04445313 44.583125 0.03515625 45.65625 C0.02355469 46.4296875 0.01195313 47.203125 0 48 C-0.33 48 -0.66 48 -1 48 C-2 42 -2 42 -2 28 C-19.49 28 -36.98 28 -55 28 C-55 30.64 -55 33.28 -55 36 C-53.68 36.33 -52.36 36.66 -51 37 C-52.32 37 -53.64 37 -55 37 C-55 44.26 -55 51.52 -55 59 C-55.33 59 -55.66 59 -56 59 C-56 51.74 -56 44.48 -56 37 C-61.61 37 -67.22 37 -73 37 C-73 39.64 -73 42.28 -73 45 C-73.33 45 -73.66 45 -74 45 C-74 39.06 -74 33.12 -74 27 C-50.24 27 -26.48 27 -2 27 C-2 22.38 -2 17.76 -2 13 C-1.74363146 10.53245282 -1.43422782 8.06753149 -1 5.625 C-0.7215625 4.00464844 -0.7215625 4.00464844 -0.4375 2.3515625 C-0.293125 1.57554687 -0.14875 0.79953125 0 0 Z " fill="#04423E" transform="translate(107,246)"/>
<path d="M0 0 C3.11158582 2.90597442 5.37457114 5.89138279 7.625 9.5 C8.21539062 10.4384375 8.80578125 11.376875 9.4140625 12.34375 C10.71884372 14.52909785 11.90619421 16.70409081 13 19 C8.125 14.375 8.125 14.375 7 11 C5.35 11 3.7 11 2 11 C2 35.42 2 59.84 2 85 C2.66 85.33 3.32 85.66 4 86 C3.34 86 2.68 86 2 86 C2 92.93 2 99.86 2 107 C-5.88660115 102.49337077 -5.88660115 102.49337077 -8.5703125 100.1953125 C-9.15683594 99.69386719 -9.74335937 99.19242187 -10.34765625 98.67578125 C-10.93417969 98.16402344 -11.52070312 97.65226562 -12.125 97.125 C-12.71925781 96.62097656 -13.31351563 96.11695313 -13.92578125 95.59765625 C-17.80462158 92.24969473 -20.61624301 89.06050839 -24 85 C-15.75 85 -7.5 85 1 85 C1 60.25 1 35.5 1 10 C1.99 9.67 2.98 9.34 4 9 C3.34 7.88625 2.68 6.7725 2 5.625 C0 2.25 0 2.25 0 0 Z " fill="#052C2E" transform="translate(125,347)"/>
<path d="M0 0 C12.82167536 15.68657521 14 43.11557006 14 62 C37.76 62 61.52 62 86 62 C86 62.33 86 62.66 86 63 C62.24 63 38.48 63 14 63 C14 67.29 14 71.58 14 76 C13.70944858 79.08137424 13.38169857 82.02503093 12.875 85.0625 C12.74665771 85.85124512 12.61831543 86.63999023 12.48608398 87.45263672 C10.26625473 100.10429399 6.44259374 112.37366391 1 124 C-0.34898641 119.95304078 1.14107723 117.56663005 2.6875 113.8125 C9.21295409 97.02736151 10.88360468 81.34209276 13 63 C-35.84 63 -84.68 63 -135 63 C-135 62.34 -135 61.68 -135 61 C-61.74 61.495 -61.74 61.495 13 62 C9.67511237 32.90293684 9.67511237 32.90293684 0.91796875 5.43359375 C0 3 0 3 0 0 Z " fill="#043F3B" transform="translate(391,211)"/>
<path d="M0 0 C0.33 0 0.66 0 1 0 C1 48.84 1 97.68 1 148 C13.1003537 147.07658005 13.1003537 147.07658005 25 145 C27.33300933 144.96111651 29.66709801 144.9551365 32 145 C22.70186959 150.18256449 11.17584516 149 1 149 C1 172.76 1 196.52 1 221 C0.67 221 0.34 221 0 221 C0 197.24 0 173.48 0 149 C-5.28 149 -10.56 149 -16 149 C-19.78179251 148.5478017 -23.35245409 148.05520787 -27.0625 147.3125 C-27.98643555 147.13605957 -28.91037109 146.95961914 -29.86230469 146.77783203 C-50.31479595 142.68520405 -50.31479595 142.68520405 -55 138 C-50.52111037 138.95235059 -46.07122097 139.95131227 -41.66015625 141.18359375 C-27.47304719 145.05280531 -15.0880783 146.25906789 0 148 C0 99.16 0 50.32 0 0 Z " fill="#03403C" transform="translate(255,274)"/>
<path d="M0 0 C0.495 0.99 0.495 0.99 1 2 C12.22 2 23.44 2 35 2 C35 2.33 35 2.66 35 3 C18.665 3.495 18.665 3.495 2 4 C1.67 7.63 1.34 11.26 1 15 C-0.62808594 14.38511719 -2.25617188 13.77023438 -3.93359375 13.13671875 C-6.10152904 12.32022364 -8.26949966 11.50382237 -10.4375 10.6875 C-12.04141602 10.08131836 -12.04141602 10.08131836 -13.67773438 9.46289062 C-19.74840767 7.17942636 -25.83139699 5.00430949 -32 3 C-32 2.67 -32 2.34 -32 2 C-21.44 2 -10.88 2 0 2 C0 1.34 0 0.68 0 0 Z " fill="#04292B" transform="translate(351,55)"/>
<path d="M0 0 C0.33 0 0.66 0 1 0 C1 7.59 1 15.18 1 23 C4.63 23 8.26 23 12 23 C12 23.33 12 23.66 12 24 C8.37 24 4.74 24 1 24 C1 33.24 1 42.48 1 52 C0.67 52 0.34 52 0 52 C0 42.76 0 33.52 0 24 C-2.64 24 -5.28 24 -8 24 C-6.5102402 15.50836915 -3.31428738 7.9105161 0 0 Z " fill="#043432" transform="translate(51,184)"/>
<path d="M0 0 C0.33 0 0.66 0 1 0 C1 23.76 1 47.52 1 72 C5.29 72 9.58 72 14 72 C17.42798431 72.37753131 20.73902769 72.79582053 24.125 73.375 C24.94742188 73.50132813 25.76984375 73.62765625 26.6171875 73.7578125 C30.47079417 74.38748679 32.67662009 74.78441339 36 77 C28.55328313 76.41169389 21.17204795 75.52713898 13.7734375 74.5 C9.52351465 73.93686322 5.26084892 73.47342766 1 73 C1 83.56 1 94.12 1 105 C0.67 105 0.34 105 0 105 C0 94.44 0 83.88 0 73 C-3.96 73 -7.92 73 -12 73 C-12 72.67 -12 72.34 -12 72 C-8.04 72 -4.08 72 0 72 C0 48.24 0 24.48 0 0 Z " fill="#04433E" transform="translate(255,51)"/>
<path d="M0 0 C6.6 0 13.2 0 20 0 C20 2.64 20 5.28 20 8 C13.4 8 6.8 8 0 8 C0 5.36 0 2.72 0 0 Z " fill="#04161D" transform="translate(256,274)"/>
<path d="M0 0 C6.6 0 13.2 0 20 0 C20 2.64 20 5.28 20 8 C13.4 8 6.8 8 0 8 C0 5.36 0 2.72 0 0 Z " fill="#04171D" transform="translate(106,274)"/>
<path d="M0 0 C5.94 0 11.88 0 18 0 C18 2.64 18 5.28 18 8 C12.06 8 6.12 8 0 8 C0 5.36 0 2.72 0 0 Z " fill="#04292A" transform="translate(33,274)"/>
<path d="M0 0 C0.99 1.32 1.98 2.64 3 4 C2.01 4.495 2.01 4.495 1 5 C1 24.14 1 43.28 1 63 C15.52 63 30.04 63 45 63 C45 63.33 45 63.66 45 64 C30.48 64 15.96 64 1 64 C1 66.97 1 69.94 1 73 C0.67 73 0.34 73 0 73 C-1.1052558 64.72982797 -1.04938893 56.56881927 -0.87890625 48.2421875 C-0.85454681 46.8440131 -0.83070639 45.44582958 -0.80735779 44.04763794 C-0.74509519 40.40130052 -0.67587103 36.75512868 -0.60510254 33.10894775 C-0.53389023 29.37479063 -0.46939199 25.64051788 -0.40429688 21.90625 C-0.27603218 14.60403861 -0.1403989 7.30198925 0 0 Z " fill="#082029" transform="translate(51,369)"/>
<path d="M0 0 C21.12 0 42.24 0 64 0 C61.08235 1.9451 59.37462715 2.45276317 56 3 C56 2.34 56 1.68 56 1 C37.85 1 19.7 1 1 1 C1.33 10.9 1.66 20.8 2 31 C1.34 31 0.68 31 0 31 C0 20.77 0 10.54 0 0 Z " fill="#09232C" transform="translate(126,57)"/>
<path d="M0 0 C11.34556075 0.37016511 21.96942116 2.47166903 33 5 C33 5.33 33 5.66 33 6 C22.44 5.67 11.88 5.34 1 5 C0.67 3.35 0.34 1.7 0 0 Z " fill="#043B38" transform="translate(276,52)"/>
<path d="M0 0 C0.33 0 0.66 0 1 0 C1 17.16 1 34.32 1 52 C7.6 52 14.2 52 21 52 C21 52.33 21 52.66 21 53 C14.4 53 7.8 53 1 53 C0.67 54.32 0.34 55.64 0 57 C-0.81285275 53.46883274 -1.10097851 50.27801871 -1.02172852 46.65893555 C-1.00163223 45.6182341 -0.98153595 44.57753265 -0.96083069 43.5052948 C-0.93379562 42.3936647 -0.90676056 41.28203461 -0.87890625 40.13671875 C-0.85529526 38.98959915 -0.83168427 37.84247955 -0.80735779 36.66059875 C-0.7308873 33.00276808 -0.64679111 29.345158 -0.5625 25.6875 C-0.50926271 23.20508886 -0.45652242 20.72266701 -0.40429688 18.24023438 C-0.2752946 12.16002025 -0.14003374 6.07996952 0 0 Z " fill="#093236" transform="translate(51,305)"/>
<path d="M0 0 C0.33 0 0.66 0 1 0 C1 7.59 1 15.18 1 23 C4.63 23 8.26 23 12 23 C12 23.33 12 23.66 12 24 C8.37 24 4.74 24 1 24 C1 33.24 1 42.48 1 52 C0.67 52 0.34 52 0 52 C0 42.76 0 33.52 0 24 C-2.64 24 -5.28 24 -8 24 C-7.505 22.515 -7.505 22.515 -7 21 C-7 21.66 -7 22.32 -7 23 C-4.69 23 -2.38 23 0 23 C-0.03552979 22.37432129 -0.07105957 21.74864258 -0.10766602 21.10400391 C-0.26496067 18.27795205 -0.41383248 15.45151826 -0.5625 12.625 C-0.61857422 11.64015625 -0.67464844 10.6553125 -0.73242188 9.640625 C-0.80493164 8.22910156 -0.80493164 8.22910156 -0.87890625 6.7890625 C-0.9260376 5.91975098 -0.97316895 5.05043945 -1.02172852 4.15478516 C-1 2 -1 2 0 0 Z " fill="#09373B" transform="translate(51,184)"/>
<path d="M0 0 C0.33 0 0.66 0 1 0 C1 1.98 1 3.96 1 6 C2.0669812 5.9388501 2.0669812 5.9388501 3.15551758 5.87646484 C6.37400966 5.69822931 9.59312299 5.53642745 12.8125 5.375 C13.93205078 5.31054688 15.05160156 5.24609375 16.20507812 5.1796875 C17.27822266 5.128125 18.35136719 5.0765625 19.45703125 5.0234375 C20.44678955 4.97106934 21.43654785 4.91870117 22.45629883 4.86474609 C25 5 25 5 28 7 C19.09 7 10.18 7 1 7 C1 12.61 1 18.22 1 24 C0.67 24 0.34 24 0 24 C0 18.39 0 12.78 0 7 C-6.6 7 -13.2 7 -20 7 C-20 6.67 -20 6.34 -20 6 C-13.4 6 -6.8 6 0 6 C0 4.02 0 2.04 0 0 Z " fill="#081E26" transform="translate(276,126)"/>
<path d="M0 0 C0.33 0 0.66 0 1 0 C1 6.27 1 12.54 1 19 C5.95 19 10.9 19 16 19 C16 19.33 16 19.66 16 20 C11.38 20.33 6.76 20.66 2 21 C1.67 23.31 1.34 25.62 1 28 C0.67 28 0.34 28 0 28 C0 25.36 0 22.72 0 20 C-6.27 20 -12.54 20 -19 20 C-19 19.67 -19 19.34 -19 19 C-12.73 19 -6.46 19 0 19 C0 12.73 0 6.46 0 0 Z " fill="#072E32" transform="translate(351,188)"/>
<path d="M0 0 C-0.59861742 2.35171131 -1.26924352 4.6859378 -2 7 C-2.99 7.495 -2.99 7.495 -4 8 C-6.1640625 7.00390625 -6.1640625 7.00390625 -8.625 5.5625 C-9.44226563 5.08941406 -10.25953125 4.61632812 -11.1015625 4.12890625 C-11.72804688 3.75636719 -12.35453125 3.38382813 -13 3 C-8.71379194 -0.37811314 -5.37107666 -1.79035889 0 0 Z " fill="#026B5C" transform="translate(334,137)"/>
<path d="M0 0 C0.33 0.66 0.66 1.32 1 2 C12.22 2 23.44 2 35 2 C35 2.33 35 2.66 35 3 C34.01080566 3.01458252 33.02161133 3.02916504 32.00244141 3.04418945 C28.33817081 3.1020897 24.67452015 3.17932152 21.01074219 3.26245117 C19.42393035 3.2957398 17.83699897 3.32375947 16.25 3.34643555 C13.97083516 3.37991078 11.69276959 3.4322186 9.4140625 3.48828125 C8.70255035 3.49467117 7.99103821 3.5010611 7.25796509 3.50764465 C5.0399544 3.54009648 5.0399544 3.54009648 2 4 C1.01 5.485 1.01 5.485 0 7 C0 5.68 0 4.36 0 3 C-4.95 3 -9.9 3 -15 3 C-15 2.67 -15 2.34 -15 2 C-10.05 2 -5.1 2 0 2 C0 1.34 0 0.68 0 0 Z " fill="#081D26" transform="translate(351,55)"/>
<path d="M0 0 C0.66 0.33 1.32 0.66 2 1 C1.63033201 2.79724763 1.2282752 4.58785578 0.8125 6.375 C0.59207031 7.37273437 0.37164062 8.37046875 0.14453125 9.3984375 C-1 12 -1 12 -3.61328125 13.3515625 C-4.40089844 13.56554687 -5.18851562 13.77953125 -6 14 C-5.52140759 12.39566191 -5.04210442 10.79153584 -4.5625 9.1875 C-4.29566406 8.29417969 -4.02882813 7.40085937 -3.75390625 6.48046875 C-3.19612127 4.64526945 -2.60655425 2.81966274 -2 1 C-1.34 0.67 -0.68 0.34 0 0 Z " fill="#00D8AE" transform="translate(468,339)"/>
<path d="M0 0 C1.40664926 0.14492123 2.8181133 0.24628931 4.23046875 0.31640625 C5.43413086 0.37924805 5.43413086 0.37924805 6.66210938 0.44335938 C7.49548828 0.48267578 8.32886719 0.52199219 9.1875 0.5625 C10.03248047 0.60568359 10.87746094 0.64886719 11.74804688 0.69335938 C13.83184433 0.79931518 15.91590103 0.9001502 18 1 C18 1.33 18 1.66 18 2 C13.87505849 2.05784708 9.75022056 2.09354407 5.625 2.125 C4.449375 2.14175781 3.27375 2.15851562 2.0625 2.17578125 C0.38027344 2.18544922 0.38027344 2.18544922 -1.3359375 2.1953125 C-2.37282715 2.20578613 -3.4097168 2.21625977 -4.47802734 2.22705078 C-7 2 -7 2 -9 0 C-3.375 -1.125 -3.375 -1.125 0 0 Z " fill="#073A3B" transform="translate(214,56)"/>
<path d="M0 0 C-0.33 0.99 -0.66 1.98 -1 3 C-2.84765625 3.73046875 -2.84765625 3.73046875 -5.0625 4.1875 C-5.79597656 4.34605469 -6.52945312 4.50460937 -7.28515625 4.66796875 C-8.13400391 4.83232422 -8.13400391 4.83232422 -9 5 C-9.33 4.34 -9.66 3.68 -10 3 C-9 1 -9 1 -6.125 -0.1875 C-3 -1 -3 -1 0 0 Z " fill="#00DBB1" transform="translate(331,483)"/>
<path d="M0 0 C0.33 0 0.66 0 1 0 C1 3.96 1 7.92 1 12 C0.01 11.34 -0.98 10.68 -2 10 C-1.85950482 8.52031676 -1.71245174 7.04125484 -1.5625 5.5625 C-1.48128906 4.73878906 -1.40007812 3.91507812 -1.31640625 3.06640625 C-1 1 -1 1 0 0 Z " fill="#00F3C3" transform="translate(477,294)"/>
<path d="M0 0 C0.99 0 1.98 0 3 0 C3.25 6.625 3.25 6.625 1 10 C0.34 9.67 -0.32 9.34 -1 9 C-0.4740625 7.329375 -0.4740625 7.329375 0.0625 5.625 C1.37239331 2.19735524 1.37239331 2.19735524 0 0 Z " fill="#033B38" transform="translate(332,135)"/>
<path d="M0 0 C1.32 0.33 2.64 0.66 4 1 C3.01 2.98 2.02 4.96 1 7 C0.01 6.67 -0.98 6.34 -2 6 C-1.34 4.02 -0.68 2.04 0 0 Z " fill="#03554C" transform="translate(330,136)"/>
<path d="M0 0 C5.28 0 10.56 0 16 0 C13.08235 1.9451 11.37462715 2.45276317 8 3 C8 2.34 8 1.68 8 1 C5.36 1 2.72 1 0 1 C0 0.67 0 0.34 0 0 Z " fill="#073034" transform="translate(174,57)"/>
<path d="M0 0 C0.33 0 0.66 0 1 0 C1 2.97 1 5.94 1 9 C0.01 9.33 -0.98 9.66 -2 10 C-1.85950482 8.52031676 -1.71245174 7.04125484 -1.5625 5.5625 C-1.48128906 4.73878906 -1.40007813 3.91507813 -1.31640625 3.06640625 C-1 1 -1 1 0 0 Z " fill="#00F7C6" transform="translate(33,243)"/>
<path d="M0 0 C-0.33 0.66 -0.66 1.32 -1 2 C-3.97 2 -6.94 2 -10 2 C-9.67 1.34 -9.34 0.68 -9 0 C-5.65506316 -0.99444068 -3.31044803 -1.10348268 0 0 Z " fill="#00F9C8" transform="translate(286,494)"/>
</svg>
